<svg width="18" height="19" viewBox="0 0 18 19" fill="none" xmlns="http://www.w3.org/2000/svg">
<path d="M9 2.1875C7.55373 2.1875 6.13993 2.61637 4.9374 3.41988C3.73486 4.22339 2.7976 5.36544 2.24413 6.70163C1.69067 8.03781 1.54586 9.50811 1.82801 10.9266C2.11017 12.3451 2.80661 13.648 3.82928 14.6707C4.85196 15.6934 6.15492 16.3898 7.57341 16.672C8.99189 16.9541 10.4622 16.8093 11.7984 16.2559C13.1346 15.7024 14.2766 14.7651 15.0801 13.5626C15.8836 12.3601 16.3125 10.9463 16.3125 9.5C16.3088 7.56175 15.5372 5.70394 14.1666 4.33339C12.7961 2.96283 10.9383 2.19122 9 2.1875V2.1875ZM9 14C8.83313 14 8.67 13.9505 8.53124 13.8578C8.39249 13.7651 8.28434 13.6333 8.22048 13.4791C8.15662 13.325 8.13991 13.1553 8.17247 12.9916C8.20502 12.828 8.28538 12.6776 8.40338 12.5596C8.52138 12.4416 8.67172 12.3613 8.8354 12.3287C8.99907 12.2962 9.16872 12.3129 9.32289 12.3767C9.47707 12.4406 9.60884 12.5487 9.70156 12.6875C9.79427 12.8262 9.84375 12.9894 9.84375 13.1562C9.84375 13.38 9.75486 13.5946 9.59662 13.7529C9.43839 13.9111 9.22378 14 9 14ZM9.5625 10.5617V10.625C9.5625 10.7742 9.50324 10.9173 9.39775 11.0227C9.29226 11.1282 9.14919 11.1875 9 11.1875C8.85082 11.1875 8.70774 11.1282 8.60226 11.0227C8.49677 10.9173 8.4375 10.7742 8.4375 10.625V10.0625C8.4375 9.91332 8.49677 9.77024 8.60226 9.66475C8.70774 9.55926 8.85082 9.5 9 9.5C9.27813 9.5 9.55002 9.41753 9.78127 9.263C10.0125 9.10848 10.1928 8.88886 10.2992 8.6319C10.4056 8.37494 10.4335 8.09219 10.3792 7.8194C10.325 7.54662 10.191 7.29605 9.99437 7.09938C9.7977 6.90271 9.54713 6.76878 9.27435 6.71452C9.00156 6.66026 8.71881 6.68811 8.46185 6.79454C8.2049 6.90098 7.98527 7.08122 7.83075 7.31248C7.67623 7.54374 7.59375 7.81562 7.59375 8.09375C7.59375 8.24293 7.53449 8.38601 7.429 8.4915C7.32351 8.59699 7.18044 8.65625 7.03125 8.65625C6.88207 8.65625 6.73899 8.59699 6.63351 8.4915C6.52802 8.38601 6.46875 8.24293 6.46875 8.09375C6.46876 7.61725 6.60326 7.15042 6.85679 6.74696C7.11032 6.34351 7.47259 6.01981 7.90192 5.8131C8.33125 5.60638 8.81021 5.52505 9.28371 5.57846C9.75721 5.63187 10.206 5.81784 10.5785 6.11499C10.951 6.41215 11.2321 6.80841 11.3894 7.2582C11.5467 7.708 11.5738 8.19305 11.4677 8.65759C11.3615 9.12212 11.1264 9.54726 10.7894 9.88411C10.4524 10.221 10.0271 10.4558 9.5625 10.5617Z" fill="black"/>
</svg>
