<svg width="83" height="31" viewBox="0 0 83 31" fill="none" xmlns="http://www.w3.org/2000/svg">
<g clip-path="url(#clip0_838_1623)">
<path d="M2.59634 22.8761C1.87804 22.3463 1.27678 21.674 0.830041 20.9012C0.383306 20.1285 0.100736 19.2721 0 18.3852H3.50861C3.71686 19.3414 4.2653 20.1893 5.0522 20.771C5.96505 21.3743 7.04708 21.6693 8.1398 21.6131C9.03633 21.6513 9.92545 21.4322 10.7014 20.9815C10.9987 20.8059 11.2432 20.5537 11.4098 20.2513C11.5765 19.9489 11.6587 19.6075 11.6484 19.2624C11.6534 19.0048 11.6027 18.749 11.4998 18.5128C11.3968 18.2767 11.2443 18.0656 11.0522 17.8939C10.629 17.5161 10.1248 17.2401 9.57845 17.087C8.98198 17.087 8.17521 16.7009 7.15771 16.4904C6.03569 16.3074 4.93181 16.0257 3.85939 15.6484C3.0188 15.39 2.266 14.9042 1.68407 14.2449C1.04713 13.4795 0.721436 12.5027 0.771792 11.5082C0.726807 10.7783 0.871017 10.0491 1.19067 9.39138C1.51032 8.73364 1.99464 8.16964 2.59634 7.754C4.01572 6.82852 5.67355 6.33569 7.368 6.33569C9.06245 6.33569 10.7203 6.82852 12.1397 7.754C13.4451 8.78995 14.3103 10.2817 14.5608 11.9293H11.3679C11.177 11.0406 10.6485 10.2608 9.8941 9.75394C9.10456 9.26747 8.18958 9.02343 7.26264 9.05217C6.45184 9.00192 5.64505 9.1977 4.94727 9.61367C4.68865 9.7711 4.47508 9.99281 4.32752 10.2572C4.17996 10.5216 4.10347 10.8196 4.10523 11.1223C4.09118 11.3573 4.13499 11.5922 4.23287 11.8063C4.33074 12.0204 4.47939 12.2071 4.6663 12.3503C5.05763 12.6934 5.52774 12.9345 6.03471 13.052C6.7954 13.2736 7.5688 13.4494 8.35052 13.5784C9.53946 13.7868 10.712 14.08 11.8591 14.4556C12.7522 14.7237 13.5538 15.2336 14.1749 15.9291C14.8428 16.7341 15.1809 17.762 15.1219 18.8062C15.1452 19.5667 14.9893 20.3218 14.6662 21.0107C14.3431 21.6995 13.8623 22.3027 13.2627 22.771C11.7979 23.8282 10.0135 24.3486 8.21004 24.2445C6.24154 24.3889 4.27761 23.9101 2.59634 22.8761Z" fill="#010211"/>
<path d="M16.6309 3.82412C16.4184 3.62706 16.2488 3.38822 16.1328 3.12257C16.0169 2.85692 15.9568 2.57018 15.9568 2.28032C15.9568 1.99046 16.0169 1.70372 16.1328 1.43807C16.2488 1.17243 16.4184 0.933588 16.6309 0.736523C17.0688 0.328133 17.646 0.102275 18.2448 0.104998C18.8563 0.0894418 19.4494 0.31646 19.8941 0.736523C20.1067 0.933588 20.2763 1.17243 20.3922 1.43807C20.5082 1.70372 20.5678 1.99046 20.5678 2.28032C20.5678 2.57018 20.5082 2.85692 20.3922 3.12257C20.2763 3.38822 20.1067 3.62706 19.8941 3.82412C19.4494 4.24418 18.8563 4.4712 18.2448 4.45565C17.646 4.45837 17.0688 4.23251 16.6309 3.82412ZM20.1395 24.174H16.6309V6.8766H20.1395V24.174Z" fill="#010211"/>
<path d="M22.2095 24.0692V6.77176H25.7181V9.19271C26.3514 8.34261 27.1366 7.61682 28.0339 7.05229C28.8354 6.63456 29.7264 6.41785 30.6302 6.42077C31.6985 6.40002 32.7527 6.66672 33.6827 7.19277C34.0926 7.43073 34.4503 7.74913 34.7337 8.12903C35.0172 8.50894 35.2203 8.94249 35.3317 9.40322C35.8223 8.44685 36.5821 7.65481 37.5173 7.12489C38.4524 6.59497 39.522 6.35019 40.5946 6.42077C41.3909 6.36198 42.1906 6.47926 42.9365 6.76426C43.6824 7.04927 44.3563 7.49511 44.9105 8.06993C45.9413 9.41234 46.4519 11.082 46.3487 12.7714V24.0692H42.8401V13.3328C42.9293 12.2749 42.6437 11.2191 42.0332 10.3504C41.765 10.0075 41.417 9.73563 41.0194 9.55826C40.6219 9.3809 40.1869 9.30354 39.7525 9.33298C39.2965 9.30939 38.8407 9.38502 38.4167 9.55462C37.9927 9.72423 37.6107 9.98367 37.2967 10.3153C36.7757 10.9047 36.4133 11.6172 36.2439 12.3855C36.0235 13.4466 35.9294 14.53 35.9634 15.6133V24.0692H32.4548V13.3328C32.5249 12.2715 32.2276 11.2183 31.6127 10.3504C31.3298 10.0156 30.9742 9.75003 30.5728 9.57368C30.1715 9.39734 29.7349 9.31495 29.2969 9.33298C28.825 9.3169 28.356 9.41316 27.9285 9.61373C27.5153 9.78978 27.1535 10.0673 26.8762 10.4206C26.3812 10.9688 26.0312 11.6322 25.8586 12.3503C25.6226 13.4214 25.5167 14.5169 25.5429 15.6133V24.0692H22.2095Z" fill="#010211"/>
<path d="M61.0853 7.57843C62.2742 8.3454 63.2129 9.44279 63.7866 10.7361C64.4109 12.2187 64.7327 13.8114 64.7327 15.4201C64.7327 17.0289 64.4109 18.6215 63.7866 20.1042C63.205 21.4019 62.2688 22.5086 61.0853 23.297C59.889 24.0508 58.4994 24.4409 57.0855 24.4197C56.0821 24.4438 55.0861 24.24 54.173 23.8233C53.2195 23.2935 52.4028 22.5487 51.7874 21.648V30.4896H48.2788V6.77152H51.7874V9.19247C52.416 8.31262 53.2303 7.58175 54.173 7.05205C55.0776 6.60697 56.0777 6.39016 57.0855 6.42053C58.5052 6.39289 59.8999 6.79668 61.0853 7.57843ZM53.8925 10.1748C53.1284 10.7202 52.523 11.4587 52.1382 12.315C51.6757 13.2772 51.4475 14.3352 51.4718 15.4026C51.4511 16.4809 51.679 17.5495 52.1382 18.5253C52.504 19.3931 53.1133 20.1364 53.8925 20.6655C54.6461 21.1811 55.5407 21.4509 56.4537 21.4375C57.13 21.454 57.8007 21.3099 58.4106 21.0171C59.0205 20.7244 59.5522 20.2912 59.9623 19.7532C60.8075 18.4661 61.2579 16.9599 61.2579 15.4201C61.2579 13.8803 60.8075 12.3742 59.9623 11.087C59.5522 10.549 59.0205 10.1159 58.4106 9.82314C57.8007 9.53039 57.13 9.38647 56.4537 9.40298C55.5429 9.40481 54.6526 9.67303 53.8925 10.1748Z" fill="#010211"/>
<path d="M70.3477 24.0688C69.2522 24.1547 68.1635 23.8294 67.2948 23.1565C66.9202 22.7265 66.6371 22.2249 66.4622 21.6821C66.2873 21.1393 66.2245 20.5665 66.2776 19.9987V0.31543H69.7862V19.0864C69.7429 19.6318 69.8521 20.1786 70.1018 20.6653C70.2858 20.8429 70.508 20.9763 70.7511 21.0553C70.9943 21.1343 71.2522 21.157 71.5054 21.1215H72.4879V23.9986L70.3477 24.0688Z" fill="#010211"/>
<path d="M73.4702 24.0688V6.77135H76.9788V8.98158C77.5838 8.13852 78.3927 7.46255 79.3298 7.01676C80.2575 6.60732 81.2629 6.40388 82.2769 6.42036H82.593V9.92897H81.6807C81.0921 9.89114 80.5017 9.97439 79.9465 10.1735C79.3913 10.3727 78.883 10.6835 78.4526 11.0869C77.9057 11.7115 77.4927 12.4416 77.2392 13.2322C76.9858 14.0228 76.8971 14.857 76.9788 15.6832V24.2091L73.4702 24.0688Z" fill="#010211"/>
</g>
<defs>
<clipPath id="clip0_838_1623">
<rect width="82.5226" height="30.4899" fill="white"/>
</clipPath>
</defs>
</svg>
