<svg width="32" height="32" viewBox="0 0 32 32" fill="none" xmlns="http://www.w3.org/2000/svg">
<rect width="32" height="32" rx="16" fill="#DCDCE6"/>
<g clip-path="url(#clip0_64_1710)">
<path d="M15.9976 3.60857L15.8313 4.17333V20.5599L15.9976 20.7258L23.6039 16.2297L15.9976 3.60857Z" fill="#343434"/>
<path d="M15.9976 3.60867L8.39111 16.2298L15.9976 20.7259V12.7723V3.60867Z" fill="#8C8C8C"/>
<path d="M15.9978 22.1659L15.9041 22.2802V28.1173L15.9978 28.3909L23.6087 17.6721L15.9978 22.1659Z" fill="#3C3C3B"/>
<path d="M15.9976 28.3909V22.1659L8.39111 17.6721L15.9976 28.3909Z" fill="#8C8C8C"/>
<path d="M15.9976 20.7257L23.6039 16.2295L15.9976 12.7721V20.7257Z" fill="#141414"/>
<path d="M8.39111 16.2295L15.9976 20.7257V12.7721L8.39111 16.2295Z" fill="#393939"/>
</g>
<defs>
<clipPath id="clip0_64_1710">
<rect width="24.7826" height="24.7826" fill="white" transform="translate(3.60864 3.60878)"/>
</clipPath>
</defs>
</svg>
