<svg width="99" height="16" viewBox="0 0 99 16" fill="none" xmlns="http://www.w3.org/2000/svg">
<path d="M12.129 15.3212H1.72181C1.59571 15.3213 1.47214 15.2858 1.36525 15.219C1.25835 15.1521 1.17246 15.0564 1.1174 14.943C1.06234 14.8296 1.04035 14.7029 1.05393 14.5775C1.06752 14.4522 1.11614 14.3332 1.19422 14.2342L4.14027 10.4911C4.27801 10.3159 4.35912 10.1029 4.3728 9.8804C4.38648 9.65792 4.33209 9.43656 4.21687 9.24576L0.18208 2.57906C0.0666621 2.38928 0.00387448 2.17218 0.000173635 1.95009C-0.00352721 1.728 0.051991 1.50893 0.161021 1.31541C0.270052 1.12189 0.428659 0.960904 0.620533 0.849002C0.812407 0.7371 1.03062 0.678322 1.25274 0.678713H10.745C10.8681 0.678775 10.9888 0.712688 11.094 0.77674C11.1991 0.840793 11.2846 0.932519 11.3411 1.04189C11.3976 1.15126 11.4229 1.27406 11.4143 1.39687C11.4058 1.51967 11.3636 1.63775 11.2924 1.73819L8.81367 5.23163C8.69036 5.40559 8.62045 5.61175 8.6125 5.82484C8.60455 6.03793 8.65891 6.24872 8.76892 6.43139L13.0903 13.6007C13.194 13.772 13.2505 13.9678 13.254 14.168C13.2575 14.3682 13.2078 14.5658 13.1101 14.7406C13.0125 14.9154 12.8702 15.0613 12.6979 15.1632C12.5255 15.2652 12.3292 15.3197 12.129 15.3212Z" fill="#4743C5"/>
<path d="M25.9765 15.366C24.9963 15.366 24.1251 15.1349 23.3627 14.6725C22.6125 14.2102 22.0256 13.5667 21.6021 12.742C21.1786 11.9048 20.9668 10.9552 20.9668 9.89311C20.9668 8.85601 21.1786 7.93136 21.6021 7.11917C22.0256 6.30698 22.6125 5.66973 23.3627 5.20741C24.1251 4.74508 24.9963 4.51392 25.9765 4.51392C27.1502 4.51392 28.1425 4.8263 28.9532 5.45106C29.7761 6.07582 30.3085 6.913 30.5505 7.9626H28.4087C28.2272 7.42531 27.9247 7.00672 27.5012 6.70683C27.0776 6.40695 26.5694 6.257 25.9765 6.257C25.3956 6.257 24.8814 6.41319 24.4336 6.72557C23.9859 7.02546 23.635 7.4503 23.3809 8.00009C23.1268 8.54988 22.9997 9.18088 22.9997 9.89311C22.9997 10.6303 23.1268 11.2801 23.3809 11.8424C23.635 12.4047 23.9859 12.842 24.4336 13.1544C24.8814 13.4667 25.3956 13.6229 25.9765 13.6229C26.6057 13.6229 27.1381 13.4543 27.5738 13.1169C28.0215 12.767 28.318 12.3047 28.4632 11.7299H30.6231C30.3932 12.8545 29.8547 13.7416 29.0077 14.3914C28.1727 15.0411 27.1623 15.366 25.9765 15.366Z" fill="#010211"/>
<path d="M36.0837 15.366C35.1035 15.366 34.2262 15.1349 33.4518 14.6725C32.6895 14.2102 32.0905 13.5667 31.6549 12.742C31.2313 11.9048 31.0196 10.9552 31.0196 9.89311C31.0196 8.85601 31.2313 7.93136 31.6549 7.11917C32.0905 6.30698 32.6895 5.66973 33.4518 5.20741C34.2262 4.74508 35.1035 4.51392 36.0837 4.51392C37.0639 4.51392 37.9351 4.74508 38.6974 5.20741C39.4719 5.66973 40.0709 6.30698 40.4944 7.11917C40.93 7.93136 41.1478 8.85601 41.1478 9.89311C41.1478 10.9427 40.9361 11.8861 40.5125 12.7233C40.089 13.548 39.49 14.1977 38.7156 14.6725C37.9533 15.1349 37.076 15.366 36.0837 15.366ZM36.0837 13.5667C36.6645 13.5667 37.1849 13.4105 37.6447 13.0981C38.1045 12.7858 38.4615 12.3484 38.7156 11.7861C38.9818 11.2239 39.1149 10.5928 39.1149 9.89311C39.1149 9.21837 38.9818 8.61235 38.7156 8.07506C38.4615 7.52527 38.1045 7.09418 37.6447 6.7818C37.1849 6.46942 36.6645 6.31323 36.0837 6.31323C35.5029 6.31323 34.9825 6.46942 34.5227 6.7818C34.0629 7.08169 33.6999 7.50653 33.4337 8.05631C33.1795 8.59361 33.0525 9.20588 33.0525 9.89311C33.0525 10.6053 33.1795 11.2426 33.4337 11.8049C33.6999 12.3547 34.0629 12.7858 34.5227 13.0981C34.9825 13.4105 35.5029 13.5667 36.0837 13.5667Z" fill="#010211"/>
<path d="M44.434 15.1598C43.6474 15.1598 43.0545 14.9724 42.6552 14.5976C42.2558 14.2227 42.0562 13.5917 42.0562 12.7045V0.85907H44.0528V12.1985C44.0528 12.6358 44.1194 12.9482 44.2525 13.1356C44.3856 13.3231 44.6578 13.4168 45.0693 13.4168H45.6319V15.1598H44.434Z" fill="#010211"/>
<path d="M48.6373 15.1598C47.8508 15.1598 47.2578 14.9724 46.8585 14.5976C46.4592 14.2227 46.2595 13.5917 46.2595 12.7045V0.85907H48.2561V12.1985C48.2561 12.6358 48.3227 12.9482 48.4558 13.1356C48.5889 13.3231 48.8612 13.4168 49.2726 13.4168H49.8353V15.1598H48.6373Z" fill="#010211"/>
<path d="M54.7018 15.366C53.7217 15.366 52.8504 15.1349 52.0881 14.6725C51.3257 14.1977 50.7328 13.5542 50.3093 12.742C49.8858 11.9173 49.674 10.9989 49.674 9.98683C49.674 9.03719 49.8616 8.14378 50.2367 7.3066C50.6239 6.46942 51.1926 5.79468 51.9429 5.28238C52.6931 4.77007 53.5946 4.51392 54.6474 4.51392C55.5428 4.51392 56.3657 4.71384 57.1159 5.11369C57.8782 5.51354 58.4893 6.11331 58.9492 6.913C59.409 7.7002 59.6389 8.66233 59.6389 9.7994V10.3617H51.7069C51.7432 10.774 51.84 11.1489 51.9973 11.4863C52.2393 12.1235 52.6024 12.6296 53.0864 13.0044C53.5704 13.3793 54.121 13.5667 54.7381 13.5667C55.3795 13.5667 55.93 13.398 56.3899 13.0607C56.8497 12.7108 57.1825 12.2672 57.3882 11.7299H59.4755C59.1367 12.8045 58.5619 13.6792 57.7512 14.3539C56.9525 15.0286 55.9361 15.366 54.7018 15.366ZM57.5697 8.69357C57.5213 8.30622 57.4184 7.9751 57.2611 7.7002C57.0191 7.22538 56.6682 6.86302 56.2084 6.61312C55.7606 6.35072 55.2645 6.21952 54.72 6.21952C54.1512 6.21952 53.6491 6.35072 53.2134 6.61312C52.7778 6.86302 52.4329 7.22538 52.1788 7.7002C52.0336 7.95011 51.9187 8.28123 51.834 8.69357H57.5697Z" fill="#010211"/>
<path d="M65.1619 15.366C64.1817 15.366 63.3105 15.1349 62.5481 14.6725C61.7979 14.2102 61.211 13.5667 60.7875 12.742C60.3639 11.9048 60.1522 10.9552 60.1522 9.89311C60.1522 8.85601 60.3639 7.93136 60.7875 7.11917C61.211 6.30698 61.7979 5.66973 62.5481 5.20741C63.3105 4.74508 64.1817 4.51392 65.1619 4.51392C66.3356 4.51392 67.3279 4.8263 68.1386 5.45106C68.9615 6.07582 69.4939 6.913 69.7359 7.9626H67.5941C67.4126 7.42531 67.1101 7.00672 66.6865 6.70683C66.263 6.40695 65.7548 6.257 65.1619 6.257C64.581 6.257 64.0667 6.41319 63.619 6.72557C63.1713 7.02546 62.8204 7.4503 62.5663 8.00009C62.3122 8.54988 62.1851 9.18088 62.1851 9.89311C62.1851 10.6303 62.3122 11.2801 62.5663 11.8424C62.8204 12.4047 63.1713 12.842 63.619 13.1544C64.0667 13.4667 64.581 13.6229 65.1619 13.6229C65.7911 13.6229 66.3235 13.4543 66.7591 13.1169C67.2069 12.767 67.5033 12.3047 67.6485 11.7299H69.8085C69.5786 12.8545 69.0401 13.7416 68.1931 14.3914C67.3581 15.0411 66.3477 15.366 65.1619 15.366Z" fill="#010211"/>
<path d="M73.817 15.1598C73.0305 15.1598 72.4375 14.9724 72.0382 14.5976C71.6389 14.2227 71.4392 13.5917 71.4392 12.7045V6.44443H69.8782V4.72009H71.4392V0.85907H73.4358V4.72009H75.5414V6.44443H73.4358V12.161C73.4358 12.5983 73.4963 12.917 73.6173 13.1169C73.7384 13.3168 74.0167 13.4168 74.4523 13.4168H75.5232V15.1598H73.817Z" fill="#010211"/>
<path d="M78.3291 15.1598H76.3324V4.72009H78.3291V15.1598ZM77.3307 3.25815C76.9677 3.25815 76.6531 3.1332 76.3869 2.88329C76.1207 2.63339 75.9876 2.32101 75.9876 1.94615C75.9876 1.5713 76.1207 1.25892 76.3869 1.00901C76.6531 0.759107 76.9677 0.634155 77.3307 0.634155C77.7059 0.634155 78.0205 0.759107 78.2746 1.00901C78.5408 1.25892 78.6739 1.5713 78.6739 1.94615C78.6739 2.32101 78.5408 2.63339 78.2746 2.88329C78.0205 3.1332 77.7059 3.25815 77.3307 3.25815Z" fill="#010211"/>
<path d="M84.3316 15.366C83.3514 15.366 82.4742 15.1349 81.6997 14.6725C80.9374 14.2102 80.3384 13.5667 79.9028 12.742C79.4792 11.9048 79.2675 10.9552 79.2675 9.89311C79.2675 8.85601 79.4792 7.93136 79.9028 7.11917C80.3384 6.30698 80.9374 5.66973 81.6997 5.20741C82.4742 4.74508 83.3514 4.51392 84.3316 4.51392C85.3118 4.51392 86.183 4.74508 86.9454 5.20741C87.7198 5.66973 88.3188 6.30698 88.7423 7.11917C89.1779 7.93136 89.3957 8.85601 89.3957 9.89311C89.3957 10.9427 89.184 11.8861 88.7604 12.7233C88.3369 13.548 87.7379 14.1977 86.9635 14.6725C86.2012 15.1349 85.3239 15.366 84.3316 15.366ZM84.3316 13.5667C84.9124 13.5667 85.4328 13.4105 85.8926 13.0981C86.3524 12.7858 86.7094 12.3484 86.9635 11.7861C87.2297 11.2239 87.3628 10.5928 87.3628 9.89311C87.3628 9.21837 87.2297 8.61235 86.9635 8.07506C86.7094 7.52527 86.3524 7.09418 85.8926 6.7818C85.4328 6.46942 84.9124 6.31323 84.3316 6.31323C83.7508 6.31323 83.2304 6.46942 82.7706 6.7818C82.3108 7.08169 81.9478 7.50653 81.6816 8.05631C81.4274 8.59361 81.3004 9.20588 81.3004 9.89311C81.3004 10.6053 81.4274 11.2426 81.6816 11.8049C81.9478 12.3547 82.3108 12.7858 82.7706 13.0981C83.2304 13.4105 83.7508 13.5667 84.3316 13.5667Z" fill="#010211"/>
<path d="M90.3404 15.1598V4.72009H92.337V6.18203C92.7847 5.56977 93.2324 5.13868 93.6802 4.88878C94.1279 4.63887 94.6361 4.51392 95.2049 4.51392C96.7174 4.51392 97.7399 5.07621 98.2724 6.20078C98.4781 6.61312 98.6051 7.03796 98.6535 7.47529C98.702 7.90013 98.7262 8.41243 98.7262 9.0122V15.1598H96.7295V8.99346C96.7295 7.93136 96.5541 7.19415 96.2032 6.7818C95.8764 6.43194 95.4045 6.257 94.7874 6.257C94.0492 6.257 93.4805 6.49441 93.0812 6.96923C92.815 7.26912 92.6214 7.67521 92.5004 8.18752C92.3915 8.69982 92.337 9.3933 92.337 10.268V15.1598H90.3404Z" fill="#010211"/>
</svg>
