<svg width="22" height="20" viewBox="0 0 22 20" fill="none" xmlns="http://www.w3.org/2000/svg">
<path d="M16.3423 6.44758C15.9627 6.23064 15.4745 6.23064 15.0407 6.44758L12.0035 8.23735L9.94252 9.3763L6.95956 11.1661C6.57992 11.383 6.0918 11.383 5.65791 11.1661L3.32579 9.75595C2.94614 9.539 2.67496 9.10512 2.67496 8.617V5.90523C2.67496 5.47134 2.8919 5.03746 3.32579 4.76628L5.65791 3.4104C6.03756 3.19345 6.52568 3.19345 6.95956 3.4104L9.29169 4.82052C9.67134 5.03746 9.94252 5.47134 9.94252 5.95946V7.74923L12.0035 6.55605V4.71205C12.0035 4.27816 11.7865 3.84428 11.3526 3.5731L7.0138 1.02403C6.63415 0.807093 6.14603 0.807093 5.71215 1.02403L1.26484 3.62734C0.830956 3.84428 0.614014 4.27816 0.614014 4.71205V9.81018C0.614014 10.2441 0.830956 10.6779 1.26484 10.9491L5.65791 13.4982C6.03756 13.7151 6.52568 13.7151 6.95956 13.4982L9.94252 11.7627L12.0035 10.5695L14.9864 8.83394C15.3661 8.617 15.8542 8.617 16.2881 8.83394L18.6202 10.1898C18.9998 10.4068 19.271 10.8407 19.271 11.3288V14.0405C19.271 14.4744 19.0541 14.9083 18.6202 15.1795L16.3423 16.5354C15.9627 16.7523 15.4745 16.7523 15.0407 16.5354L12.7085 15.1795C12.3289 14.9626 12.0577 14.5287 12.0577 14.0405V12.305L9.99675 13.4982V15.288C9.99675 15.7218 10.2137 16.1557 10.6476 16.4269L15.0407 18.976C15.4203 19.1929 15.9084 19.1929 16.3423 18.976L20.7354 16.4269C21.115 16.21 21.3862 15.7761 21.3862 15.288V10.1356C21.3862 9.70171 21.1693 9.26783 20.7354 8.99665L16.3423 6.44758Z" fill="currentColor"/>
</svg>
